<?xml version="1.0" encoding="utf-8"?>
<!-- Generator: Adobe Illustrator 18.0.0, SVG Export Plug-In . SVG Version: 6.00 Build 0)  -->
<!DOCTYPE svg PUBLIC "-//W3C//DTD SVG 1.1//EN" "http://www.w3.org/Graphics/SVG/1.1/DTD/svg11.dtd">
<svg version="1.1" id="Layer_1" xmlns="http://www.w3.org/2000/svg" xmlns:xlink="http://www.w3.org/1999/xlink" x="0px" y="0px"
	 viewBox="0 0 172 61.6" enable-background="new 0 0 172 61.6" xml:space="preserve">
<g>
	<g>
		<path fill="#FCFCFC" d="M5,32.4c-0.2,0-0.5,0-0.7-0.1C4,32.2,3.8,32.1,3.6,32c-0.2-0.1-0.4-0.3-0.5-0.5C3,31.3,2.9,31,2.9,30.7
			c0-0.4,0.1-0.7,0.3-0.9c0.2-0.2,0.5-0.4,0.8-0.6C4.4,29.1,4.8,29,5.3,29c0.5,0,0.9-0.1,1.4-0.1c0.3,0,0.5,0,0.8,0
			c0.9-1.9,1.3-2.9,2.1-4.8c0.1-0.3,0.3-0.5,0.4-0.8c0.2-0.3,0.4-0.5,0.7-0.7c0.3-0.2,0.6-0.4,0.9-0.5c0.3-0.1,0.7-0.2,1.1-0.2
			c0.2,0,0.4,0,0.5,0.1c0.1,0.1,0.2,0.2,0.3,0.3c0.1,0.1,0.1,0.3,0.1,0.4c0,0.2,0,0.3,0,0.4c0,0.1,0,0.2-0.1,0.3s-0.1,0.3-0.2,0.5
			c-0.1,0.2-0.2,0.4-0.2,0.6c-0.1,0.2-0.1,0.3-0.2,0.5c-0.2,0.5-0.5,1.1-0.8,1.7c-0.3,0.6-0.6,1.3-0.9,2c0.7,0,1.3-0.1,2-0.1
			c0.7,0,1.4-0.1,2.1-0.1c0.3-1,0.6-1.9,0.9-2.7c0.3-0.8,0.5-1.5,0.8-2.1c0.1-0.3,0.2-0.5,0.4-0.8s0.4-0.5,0.6-0.7
			c0.2-0.2,0.5-0.4,0.9-0.6c0.3-0.2,0.7-0.2,1.1-0.3c0.2,0,0.4,0,0.5,0.1c0.1,0.1,0.2,0.2,0.3,0.3c0.1,0.1,0.1,0.3,0.1,0.4
			s0,0.3,0.1,0.4c0,0.1,0,0.2-0.1,0.4S21,23.2,21,23.4c-0.1,0.2-0.1,0.4-0.2,0.6c-0.1,0.2-0.1,0.3-0.2,0.5c-0.2,0.5-0.4,1.1-0.6,1.8
			c-0.2,0.6-0.4,1.3-0.7,2.1c0.8,0,1.2-0.1,1.9-0.1c0.3,0,0.5,0,0.6,0c0.2,0,0.3,0.1,0.4,0.2c0.1,0.1,0.2,0.2,0.2,0.3
			c0,0.1,0.1,0.2,0.1,0.4c0,0.4-0.1,0.7-0.2,1c-0.1,0.3-0.3,0.6-0.6,0.8c-0.3,0.2-0.7,0.4-1.2,0.6c-0.5,0.2-1.1,0.3-1.8,0.3
			c-0.2,0-0.3,0-0.5,0c-0.2,0.7-0.5,1.4-0.7,2.2c-0.2,0.7-0.5,1.5-0.8,2.3c0.5,0,0.8,0,1.3-0.1c0.3,0,0.5,0,0.6,0.1
			c0.2,0.1,0.3,0.1,0.4,0.2c0.1,0.1,0.2,0.2,0.2,0.3c0,0.1,0.1,0.2,0.1,0.3c0,0.3-0.1,0.7-0.2,1c-0.1,0.3-0.3,0.6-0.6,0.8
			c-0.3,0.2-0.7,0.4-1.2,0.6c-0.5,0.2-1.1,0.3-1.8,0.3c0,0,0,0,0,0c-0.4,1-0.7,2-1.1,3s-0.8,2.1-1.2,3.1c-0.1,0.3-0.3,0.5-0.4,0.7
			s-0.3,0.3-0.5,0.4s-0.3,0.2-0.5,0.2c-0.2,0-0.3,0.1-0.5,0.1c-0.2,0-0.4,0-0.6,0c-0.2,0-0.4-0.1-0.5-0.2c-0.2-0.1-0.3-0.2-0.4-0.4
			c-0.1-0.2-0.1-0.4-0.1-0.7c0-0.4,0.1-1,0.4-1.7c0.6-1.7,0.9-2.6,1.5-4.3c-0.8,0-1.6,0.1-2.4,0.1c-0.8,0-1.7,0.1-2.6,0.1
			c-0.5,1-0.9,2-1.4,3s-1,2.1-1.5,3.1c-0.2,0.3-0.3,0.5-0.5,0.7c-0.2,0.2-0.3,0.3-0.5,0.4c-0.2,0.1-0.3,0.2-0.5,0.2
			c-0.2,0-0.3,0-0.5,0c-0.2,0-0.4,0-0.5,0c-0.2,0-0.3-0.1-0.5-0.2c-0.1-0.1-0.3-0.2-0.4-0.4C0,47,0,46.8,0,46.5c0-0.2,0-0.5,0.1-0.8
			s0.2-0.7,0.4-1.1c0.8-1.7,1.1-2.6,1.9-4.3c-0.1,0-0.1,0-0.1,0s-0.1,0-0.1,0c-0.2,0-0.5,0-0.7-0.1C1.2,40.1,1,40,0.8,39.9
			s-0.4-0.3-0.5-0.5c-0.1-0.2-0.2-0.5-0.2-0.8c0-0.3,0.1-0.5,0.2-0.7c0.1-0.2,0.2-0.3,0.4-0.5c0.2-0.1,0.3-0.2,0.5-0.3
			c0.2-0.1,0.4-0.2,0.6-0.2c0.1-0.1,0.4-0.1,0.7-0.1s0.6,0,0.9,0c0.2,0,0.4,0,0.6,0c0.8-1.8,1.2-2.7,2-4.5C5.6,32.3,5.4,32.3,5,32.4
			z M10,32.2c-0.3,0.7-0.6,1.3-0.9,2c-0.3,0.8-0.6,2.2-1,2.2c0,0,0,0,0,0c0.8,0,1.5,0.1,2.3,0.1c0.8,0,1.6,0,2.4,0
			c0.3-0.7,0.5-1.4,0.8-2.2c0.3-0.8,0.5-1.5,0.8-2.3C12.6,32.1,11.7,32.2,10,32.2z"/>
		<path fill="#FCFCFC" d="M29.3,27.2c0,0,0,0.1,0,0.2c0,0.1-0.1,0.3-0.2,0.4c-0.1,0.2-0.3,0.3-0.5,0.4c-0.2,0.1-0.6,0.2-1,0.3
			c-0.6,0-1.1,0.1-1.4,0c-0.3,0-0.6-0.1-0.7-0.2c-0.2-0.1-0.3-0.2-0.3-0.4s-0.1-0.3-0.1-0.4c0-1.5,0.4-2.9,1.2-4
			c0.8-1.2,1.8-2.1,3.2-3c1.4-0.8,3.1-1.5,5-2c1.9-0.5,4.1-0.9,6.4-1.2c1.6-0.2,3.2-0.3,4.9-0.3c1.7-0.1,3.5-0.1,5.3-0.2
			c0.5,0.1,0.9,0.2,1.1,0.5c0.2,0.2,0.3,0.5,0.3,0.8c0,0.2,0,0.4-0.1,0.6c-0.1,0.2-0.1,0.4-0.3,0.6c-0.1,0.2-0.3,0.4-0.5,0.5
			S51.4,20,51.2,20c0,0-0.1,0-0.1,0c0,0-0.1,0-0.1,0c-0.7,0-1.4,0.1-2.2,0.1c-0.8,0-1.6,0.1-2.5,0.1c-0.9,0-1.7,0.1-2.7,0.2
			c-0.9,0.1-1.8,0.2-2.8,0.3c-0.3,0-0.6,0.1-1,0.1C39.4,21,39,21,38.7,21.1c-0.4,0.1-0.8,0.2-1.3,0.3c0,0.1,0,0.2,0,0.3
			c0,0.1,0,0.3-0.1,0.6c0,0.3-0.1,0.6-0.2,1c-0.1,0.4-0.2,1-0.2,1.6c-0.1,0.6-0.2,1.4-0.3,2.3s-0.2,2.1-0.3,3.4
			c3.4-0.3,5.1-0.5,8.5-0.9c0.2,0,0.4,0,0.6,0.1c0.1,0.1,0.2,0.2,0.3,0.3c0.1,0.1,0.1,0.3,0.1,0.4c0,0.2,0,0.3,0,0.5
			c0,0.5-0.1,0.8-0.3,1.1s-0.4,0.4-0.7,0.4c-0.1,0-0.3,0-0.7,0.1c-0.4,0.1-0.9,0.1-1.5,0.2c-0.6,0.1-1.2,0.2-1.9,0.3
			c-0.7,0.1-1.4,0.2-2,0.3c-0.6,0.1-1.2,0.2-1.7,0.2c-0.5,0.1-0.9,0.1-1.1,0.1c-0.2,1.3-0.5,2.5-0.7,3.7c-0.2,1.2-0.5,2.3-0.9,3.3
			c-0.4,1-0.8,2-1.3,2.9c-0.5,0.9-1.1,1.6-1.7,2.3c-0.7,0.6-1.4,1.2-2.3,1.6c-0.9,0.4-1.9,0.6-3,0.7c-0.2,0-0.5,0-0.8,0
			c-0.3,0-0.7,0-1-0.1c-0.4,0-0.7-0.1-1.1-0.2s-0.7-0.2-0.9-0.4c-0.3-0.2-0.5-0.3-0.7-0.6c-0.2-0.2-0.3-0.5-0.3-0.8
			c0-0.2,0-0.4,0.1-0.6c0.1-0.3,0.2-0.5,0.3-0.8c0.1-0.2,0.3-0.5,0.5-0.7c0.2-0.2,0.5-0.3,0.8-0.3c0.3,0,0.7,0,1.1,0.1
			s0.8,0.2,1.2,0.3c0.4,0.1,0.8,0.2,1.2,0.3c0.4,0.1,0.8,0.1,1.3,0.1c0.3,0,0.7-0.2,1-0.5c0.3-0.3,0.6-0.7,0.9-1.2
			c0.3-0.5,0.6-1.1,0.8-1.8c0.3-0.7,0.5-1.4,0.7-2.1c0.2-0.8,0.4-1.6,0.6-2.4c0.2-0.8,0.4-1.7,0.6-2.5c-0.8,0.1-1.2,0.1-1.9,0.2
			c-0.2,0-0.4,0-0.7,0c-0.3,0-0.5-0.1-0.7-0.1c-0.2-0.1-0.4-0.2-0.6-0.3c-0.2-0.1-0.2-0.3-0.2-0.6c0-0.2,0-0.3,0.1-0.5
			s0.2-0.3,0.5-0.4c0.6-0.2,1.1-0.3,1.5-0.4c0.4-0.1,0.8-0.2,1.2-0.3c0.3-0.1,0.6-0.2,0.9-0.2c0.3-0.1,0.5-0.1,0.7-0.2
			c0.2-1.2,0.4-2.3,0.6-3.1c0.1-0.8,0.3-1.6,0.4-2.3c0.1-0.7,0.2-1.3,0.3-1.9c0.1-0.6,0.2-1.2,0.3-1.9c-0.9,0.3-1.7,0.7-2.4,1.2
			c-0.7,0.4-1.2,0.9-1.7,1.3c-0.4,0.5-0.8,0.9-1,1.4C29.4,26.3,29.3,26.7,29.3,27.2z"/>
		<path fill="#FCFCFC" d="M48,43.9c-1,0.1-1.8,0-2.5-0.2c-0.7-0.3-1.3-0.7-1.8-1.2c-0.5-0.5-0.8-1.2-1.1-2c-0.2-0.8-0.4-1.6-0.4-2.4
			c0-0.6,0.1-1.3,0.3-2.1c0.2-0.8,0.4-1.5,0.7-2.2c0.2-0.6,0.5-1.2,0.9-1.8c0.3-0.6,0.8-1.1,1.2-1.6c0.5-0.5,1-0.9,1.6-1.2
			c0.6-0.3,1.2-0.5,1.9-0.6c0.6-0.1,1.1,0,1.6,0.1c0.5,0.1,0.9,0.3,1.3,0.6c0.4,0.3,0.7,0.7,0.9,1.1s0.3,1,0.3,1.5
			c0,0.6-0.2,1.4-0.6,2.2c-0.4,0.8-0.9,1.6-1.5,2.2c-0.6,0.6-1.2,1.2-2,1.7c-0.8,0.5-1.6,1-2.5,1.3c0.2,0.3,0.3,0.5,0.5,0.6
			c0.1,0.2,0.3,0.3,0.5,0.4c0.2,0.1,0.3,0.1,0.5,0.2c0.2,0,0.4,0,0.5,0c0.6-0.1,1.3-0.3,2-0.6c0.7-0.3,1.3-0.7,2-1.2
			c0.6-0.4,1.3-0.9,1.8-1.4c0.6-0.5,1.1-1,1.5-1.4c0.8,0.7,1.2,1.1,2,1.8c-0.9,1.1-1.9,2.1-2.9,2.9c-0.4,0.4-0.9,0.8-1.4,1.1
			s-1,0.7-1.6,1c-0.6,0.3-1.1,0.6-1.7,0.8C49.2,43.6,48.6,43.8,48,43.9z M45.9,36.8c0.4,0,0.8-0.2,1.2-0.4c0.4-0.2,0.8-0.5,1.2-0.9
			s0.7-0.8,1.1-1.3c0.4-0.5,0.5-1,0.5-1.3c0-0.5-0.1-0.8-0.3-1.1c-0.2-0.3-0.4-0.4-0.6-0.4c-0.4,0.1-0.8,0.2-1.1,0.4
			s-0.6,0.4-0.8,0.7c-0.2,0.3-0.4,0.6-0.5,0.9c-0.1,0.3-0.3,0.8-0.4,1.3C46.1,35.2,46,35.7,46,36C45.9,36.3,45.9,36.5,45.9,36.8z"/>
		<path fill="#FCFCFC" d="M59.3,42.4c-1,0.1-1.8,0.1-2.5-0.2C56,42,55.4,41.6,54.9,41c-0.5-0.5-0.9-1.2-1.1-1.9
			c-0.2-0.7-0.4-1.5-0.4-2.4c0-0.6,0.1-1.3,0.3-2.2c0.2-0.9,0.4-1.6,0.7-2.3c0.2-0.7,0.5-1.3,0.9-1.9c0.4-0.6,0.8-1.2,1.2-1.7
			c0.5-0.5,1-0.9,1.6-1.2c0.6-0.3,1.2-0.5,1.9-0.6c0.6-0.1,1.2-0.1,1.7,0c0.5,0.1,1,0.3,1.4,0.6s0.7,0.6,0.9,1
			c0.2,0.4,0.3,0.9,0.3,1.4c0,0.4,0,0.7-0.2,1.1c-0.1,0.4-0.3,0.8-0.6,1.3c-0.3,0.5-0.6,0.9-0.8,1.1s-0.6,0.3-0.9,0.4
			c-0.5,0.1-0.9,0-1-0.2c-0.2-0.4-0.3-0.7-0.2-1c0-0.2,0.1-0.6,0.3-1.2c0-0.1,0-0.3,0-0.6c0-0.2,0-0.4-0.1-0.6
			c-0.1-0.2-0.2-0.2-0.3-0.2c-0.4,0.1-0.8,0.2-1.1,0.5c-0.3,0.2-0.6,0.5-0.8,0.9c-0.2,0.4-0.4,0.8-0.6,1.5c-0.2,0.6-0.4,1.1-0.4,1.5
			c-0.1,0.4-0.1,0.8-0.2,1.2c0,0.4,0,0.7,0,0.9c0,0.4,0,0.8,0.1,1.1c0.1,0.4,0.2,0.7,0.4,1c0.2,0.3,0.5,0.5,0.8,0.7
			c0.3,0.2,0.7,0.2,1.2,0.2c0.5-0.1,1-0.3,1.6-0.7c0.6-0.4,1.2-0.9,1.8-1.4c0.6-0.5,1.2-1.1,1.7-1.8c0.5-0.6,1-1.2,1.4-1.8
			c0.4,0.7,0.6,1,1.1,1.6c-0.8,1.2-1.6,2.3-2.5,3.3c-0.4,0.4-0.8,0.8-1.2,1.3c-0.4,0.4-0.9,0.8-1.4,1.1c-0.5,0.3-1,0.6-1.5,0.9
			C60.3,42.2,59.8,42.3,59.3,42.4z"/>
		<path fill="#FCFCFC" d="M71,32.2c0.4-0.5,0.8-1.1,1.2-1.8c0.4-0.6,0.9-1.3,1.3-1.8c0.4-0.6,0.9-1.2,1.3-1.8c0.4-0.6,0.8-1,1-1.2
			c0.3-0.3,0.7-0.5,1.2-0.8c0.5-0.2,1-0.4,1.5-0.5c0.3,0,0.6,0,0.8,0.1c0.3,0.1,0.5,0.3,0.7,0.5c0.2,0.2,0.3,0.5,0.5,0.8
			c0.1,0.3,0.2,0.7,0.2,1.2c0,0.4-0.1,1-0.4,1.6c-0.3,0.6-0.6,1.2-0.9,1.7c-0.3,0.5-0.6,1-1,1.5c-0.4,0.5-0.7,1-1,1.5
			c-0.3,0.5-0.6,1-0.8,1.4c-0.2,0.5-0.3,0.9-0.3,1.4c0,0.4,0.1,0.6,0.3,0.8c0.2,0.1,0.5,0.2,0.8,0.1c0.2,0,0.4-0.1,0.7-0.3
			c0.2-0.2,0.5-0.4,0.7-0.7c0.3-0.3,0.5-0.6,0.8-0.9c0.3-0.3,0.5-0.6,0.8-1c0.2-0.3,0.5-0.6,0.7-0.9c0.2-0.3,0.4-0.6,0.6-0.8
			c0.4,1.5,0.6,2.2,0.9,3.7c-0.3,0.5-0.7,0.9-1.2,1.4c-0.5,0.4-1,0.8-1.6,1.2c-0.6,0.4-1.2,0.7-1.8,0.9s-1.2,0.4-1.8,0.5
			c-0.7,0.1-1.3,0.1-1.8,0c-0.5-0.1-0.8-0.3-1.1-0.5c-0.3-0.2-0.5-0.5-0.5-0.9c-0.1-0.3-0.1-0.7-0.1-1.1c0-0.2,0-0.5,0.1-0.9
			c0.1-0.4,0.2-0.8,0.3-1.2c0.2-0.5,0.4-1,0.7-1.6c0.3-0.6,0.7-1.2,1.1-1.9c0.2-0.2,0.4-0.4,0.5-0.6c0.2-0.2,0.3-0.3,0.4-0.5
			c0.1-0.1,0.2-0.3,0.3-0.4c0.1-0.1,0.1-0.2,0.1-0.3c0-0.2,0-0.4-0.1-0.5c-0.1-0.1-0.2-0.2-0.3-0.2c-0.2,0-0.4,0.2-0.7,0.4
			c-0.3,0.3-0.6,0.7-0.9,1.3c-1.8,3.4-2.7,5.2-4.5,8.6c-0.2,0.4-0.5,0.7-0.7,0.9c-0.2,0.2-0.5,0.3-0.9,0.4c-0.4,0.1-0.8,0-1-0.1
			c-0.3-0.1-0.5-0.4-0.6-0.6c-0.1-0.3-0.2-0.6-0.3-1c0-0.4-0.1-0.8-0.1-1.3c0-0.6,0-1.4,0.1-2.4c0-1,0.1-2.1,0.2-3.3
			c0.1-1.2,0.2-2.4,0.3-3.7c0.1-1.3,0.3-2.6,0.5-3.8c0.1-0.4,0.2-1,0.3-1.6c0.1-0.6,0.3-1.3,0.5-2c0.2-0.7,0.4-1.5,0.6-2.2
			c0.2-0.8,0.5-1.5,0.8-2.3c0.3-0.7,0.6-1.5,1-2.2c0.4-0.7,0.8-1.3,1.3-1.9c0.5-0.5,1-1,1.6-1.4c0.6-0.4,1.2-0.6,1.9-0.7
			c0.5-0.1,1-0.1,1.3,0.1c0.3,0.1,0.6,0.3,0.8,0.6c0.2,0.3,0.3,0.6,0.4,1c0.1,0.4,0.1,0.9,0.1,1.3c0,0.9-0.1,1.8-0.3,2.9
			c-0.2,1-0.5,2.1-0.8,3.2c-0.3,1.1-0.7,2.1-1.1,3.1c-0.4,1-0.8,2-1.2,2.8c-0.4,0.8-0.7,1.5-1,2.1c-0.3,0.6-0.5,1-0.6,1.1
			c-0.7,1.2-1.1,1.8-1.8,3C70.8,32.1,70.9,32.1,71,32.2z M74,14.3c-0.3,0.1-0.6,0.2-0.9,0.4c-0.2,0.2-0.5,0.6-0.7,1
			s-0.4,0.9-0.6,1.5s-0.5,1.2-0.7,1.9c-0.1,0.6-0.3,1.3-0.5,1.9c-0.2,0.7-0.3,1.3-0.4,1.9c-0.1,0.6-0.2,1.3-0.3,1.9
			c-0.1,0.6-0.2,1.2-0.3,1.7c-0.2,1.3-0.3,2.6-0.4,3.9c0.2-0.7,0.5-1.5,0.7-2.4c0.3-0.8,0.5-1.7,0.8-2.5s0.5-1.6,0.7-2.3
			c0.2-0.7,0.4-1.3,0.6-1.9c0.1-0.2,0.2-0.5,0.3-0.9c0.1-0.4,0.3-0.7,0.4-1.2c0.2-0.4,0.3-0.8,0.5-1.3c0.2-0.4,0.3-0.9,0.4-1.3
			c0.1-0.4,0.2-0.8,0.3-1.1c0.1-0.4,0.1-0.6,0.1-0.9C74.4,14.4,74.3,14.3,74,14.3z"/>
		<path fill="#FCFCFC" d="M89.1,19.2c0,0,0,0.1,0,0.2c0,0.1-0.1,0.3-0.2,0.4s-0.3,0.3-0.5,0.5c-0.2,0.1-0.6,0.3-1,0.3
			c-0.6,0.1-1,0.1-1.4,0.1c-0.3,0-0.6-0.1-0.7-0.2c-0.2-0.1-0.3-0.2-0.3-0.3c0-0.1-0.1-0.3-0.1-0.4c0-1.5,0.4-2.9,1.2-4.1
			c0.8-1.2,1.8-2.3,3.2-3.2c1.4-0.9,3.1-1.7,5-2.3c1.9-0.6,4.1-1.1,6.4-1.5c1.6-0.2,3.2-0.4,4.9-0.5c1.7-0.1,3.5-0.2,5.3-0.3
			c0.5,0.1,0.9,0.2,1.1,0.5c0.2,0.2,0.3,0.5,0.3,0.8c0,0.2,0,0.4-0.1,0.6c-0.1,0.2-0.1,0.4-0.3,0.6c-0.1,0.2-0.3,0.4-0.5,0.5
			c-0.2,0.1-0.4,0.2-0.6,0.3c0,0-0.1,0-0.1,0c0,0-0.1,0-0.1,0c-0.7,0-1.4,0.1-2.2,0.1c-0.8,0.1-1.6,0.1-2.5,0.2
			c-0.9,0.1-1.7,0.1-2.7,0.3c-0.9,0.1-1.8,0.2-2.8,0.4c-0.3,0-0.6,0.1-1,0.2c-0.4,0.1-0.8,0.2-1.1,0.3c-0.4,0.1-0.8,0.2-1.3,0.3
			c0,0.1,0,0.2,0,0.3c0,0.1,0,0.3-0.1,0.6c0,0.3-0.1,0.6-0.2,1c-0.1,0.4-0.2,1-0.2,1.6c-0.1,0.6-0.2,1.4-0.3,2.3
			c-0.1,0.9-0.2,2.1-0.3,3.5c3.4-0.5,5.1-0.8,8.5-1.3c0.2,0,0.4,0,0.6,0.1c0.1,0.1,0.2,0.2,0.3,0.3c0.1,0.1,0.1,0.3,0.1,0.4
			c0,0.2,0,0.3,0,0.5c0,0.5-0.1,0.8-0.3,1.1c-0.2,0.3-0.4,0.4-0.7,0.4c-0.1,0-0.3,0.1-0.7,0.1c-0.4,0.1-0.9,0.2-1.5,0.3
			c-0.6,0.1-1.2,0.2-1.9,0.3c-0.7,0.1-1.4,0.2-2,0.4c-0.6,0.1-1.2,0.2-1.7,0.3c-0.5,0.1-0.9,0.2-1.1,0.2c-0.2,1.3-0.5,2.5-0.7,3.7
			s-0.5,2.3-0.9,3.4c-0.4,1.1-0.8,2-1.3,2.9c-0.5,0.9-1.1,1.7-1.7,2.4c-0.7,0.7-1.4,1.3-2.3,1.7c-0.9,0.5-1.9,0.8-3,0.9
			c-0.2,0-0.5,0.1-0.8,0.1c-0.3,0-0.7,0-1,0c-0.4,0-0.7-0.1-1.1-0.1c-0.4-0.1-0.7-0.2-0.9-0.3c-0.3-0.1-0.5-0.3-0.7-0.5
			c-0.2-0.2-0.3-0.5-0.3-0.8c0-0.2,0-0.4,0.1-0.6c0.1-0.3,0.2-0.5,0.3-0.8c0.1-0.3,0.3-0.5,0.5-0.7c0.2-0.2,0.5-0.3,0.8-0.4
			c0.3-0.1,0.7-0.1,1.1,0c0.4,0.1,0.8,0.1,1.2,0.2c0.4,0.1,0.8,0.1,1.2,0.2c0.4,0,0.8,0,1.3,0c0.3-0.1,0.7-0.2,1-0.6
			c0.3-0.3,0.6-0.7,0.9-1.3c0.3-0.5,0.6-1.1,0.8-1.8c0.3-0.7,0.5-1.4,0.7-2.2c0.2-0.8,0.4-1.6,0.6-2.4c0.2-0.8,0.4-1.7,0.6-2.5
			c-0.8,0.1-1.2,0.2-1.9,0.3c-0.2,0-0.4,0-0.7,0c-0.3,0-0.5,0-0.7-0.1c-0.2-0.1-0.4-0.1-0.6-0.3c-0.2-0.1-0.2-0.3-0.2-0.5
			c0-0.2,0-0.3,0.1-0.5s0.2-0.3,0.5-0.4c0.6-0.2,1.1-0.4,1.5-0.5c0.4-0.2,0.8-0.3,1.2-0.4c0.3-0.1,0.6-0.2,0.9-0.3
			c0.3-0.1,0.5-0.2,0.7-0.2c0.2-1.3,0.4-2.3,0.6-3.1c0.1-0.8,0.3-1.6,0.4-2.3c0.1-0.7,0.2-1.3,0.3-1.9c0.1-0.6,0.2-1.2,0.3-1.9
			c-0.9,0.4-1.7,0.8-2.4,1.3c-0.7,0.5-1.2,0.9-1.7,1.4c-0.4,0.5-0.8,1-1,1.4C89.2,18.4,89.1,18.8,89.1,19.2z"/>
		<path fill="#FCFCFC" d="M102.7,32.7c0-0.5,0-1,0.1-1.6c0.1-0.6,0.1-1.3,0.2-1.9c0.1-0.7,0.2-1.4,0.3-2.1c0.1-0.7,0.3-1.5,0.5-2.3
			c0.2-0.8,0.3-1.5,0.5-2s0.3-1,0.4-1.4c0.1-0.2,0.2-0.4,0.2-0.6c0.1-0.1,0.2-0.3,0.3-0.4c0.1-0.1,0.2-0.2,0.4-0.2
			c0.2,0,0.4-0.1,0.6-0.1c0.3,0,0.5-0.1,0.6-0.1c0.1,0,0.3,0.1,0.3,0.1c0.1,0.1,0.1,0.2,0.1,0.4c0,0.2,0,0.4,0,0.8
			c0,0.4,0,0.9-0.1,1.6c-0.1,0.7-0.1,1.3,0,1.8c0.1,0,0.1,0,0.2,0c0.2-0.4,0.5-1,0.8-1.7c0.3-0.7,0.6-1.3,1-1.8
			c0.3-0.5,0.7-0.9,1.2-1.3c0.4-0.4,0.9-0.6,1.5-0.7c0.2,0,0.4,0,0.6,0s0.3,0.1,0.5,0.2c0.1,0.1,0.2,0.2,0.3,0.4
			c0.1,0.2,0.1,0.4,0.1,0.6c0,0.2,0,0.4-0.1,0.7c-0.1,0.3-0.1,0.7-0.2,1.3c-0.1,0.5-0.2,0.9-0.2,1.3c-0.1,0.3-0.1,0.6-0.1,0.8
			c0,0.4,0,0.7,0.1,0.9c0.1,0.2,0.2,0.4,0.3,0.6c0.1,0.1,0.3,0.2,0.4,0.3c0.1,0,0.3,0.1,0.5,0c0.5-0.1,0.9-0.2,1.4-0.5
			c0.5-0.3,0.9-0.6,1.4-0.9c0.5-0.4,1-0.8,1.4-1.2c-0.1,1.5-0.1,2.2-0.2,3.6c-0.3,0.2-0.6,0.4-0.9,0.7c-0.3,0.3-0.7,0.5-1.1,0.8
			s-0.8,0.5-1.2,0.6c-0.4,0.2-0.8,0.3-1.3,0.4c-0.8,0.1-1.4,0-1.9-0.2c-0.5-0.2-0.8-0.6-1.1-1.1c-0.3-0.5-0.5-1-0.6-1.6
			c-0.1-0.6-0.2-1.2-0.3-1.9c-0.1,0-0.1,0-0.2,0c-1.1,3.2-1.7,4.9-2.8,8.1c-0.1,0.4-0.3,0.8-0.4,1.1c-0.1,0.3-0.3,0.5-0.4,0.7
			s-0.3,0.3-0.4,0.4c-0.2,0.1-0.3,0.1-0.5,0.2c-0.4,0.1-0.8,0-1-0.1c-0.3-0.1-0.5-0.4-0.6-0.6c-0.1-0.3-0.2-0.6-0.3-1
			C102.7,33.5,102.7,33.1,102.7,32.7z"/>
		<path fill="#FCFCFC" d="M125.6,29.5c-1,0.4-1,0.8-1.5,1.3c-0.6,0.5-1.2,0.9-1.9,1.3c-0.6,0.4-1.3,0.8-2,1.1
			c-0.7,0.3-1.3,0.5-1.9,0.6c-0.5,0.1-1,0.1-1.4,0c-0.4-0.1-0.7-0.3-0.9-0.5c-0.2-0.2-0.4-0.5-0.5-0.9s-0.1-0.8-0.1-1.3
			c0-0.6,0.1-1.4,0.2-2.3c0.3-1.8,0.5-2.9,0.6-3.1c0.1-0.5,0.4-1.5,0.8-3c0.4-1.3,0.6-2.1,0.7-2.5c0.1-0.3,0.2-0.5,0.4-0.8
			c0.2-0.2,0.5-0.4,0.7-0.6c0.3-0.2,0.5-0.3,0.8-0.4c0.3-0.1,0.5-0.2,0.8-0.2c0.4-0.1,0.7,0,0.9,0.1c0.2,0.1,0.2,0.3,0.2,0.6
			c0,0.2-0.1,0.6-0.2,1c-0.1,0.4-0.2,0.9-0.4,1.5c-0.1,0.5-0.3,1.3-0.6,2.1c-0.3,0.9-0.4,1.6-0.5,2.2c-0.1,0.6-0.2,1.2-0.4,1.8
			c-0.1,0.6-0.2,1.1-0.2,1.6c0,0.5,0.1,0.8,0.2,1.1c0.1,0.3,0.3,0.4,0.6,0.3c0.4,0,0.8-0.2,1.2-0.5c0.5-0.3,0.9-0.7,1.4-1.1
			c0.5-0.4,1.1-0.9,1.5-1.3c0.4-0.4,0.3-0.8,1.3-1.1C125.6,27.6,125.6,28.3,125.6,29.5z M118.4,14.2c0-0.2,0.1-0.5,0.2-0.8
			c0.1-0.3,0.3-0.6,0.5-0.9s0.5-0.6,0.9-0.8s0.9-0.4,1.4-0.5c0.4,0,0.7,0,1,0c0.3,0,0.6,0.1,0.8,0.3c0.2,0.1,0.4,0.3,0.6,0.6
			c0.1,0.3,0.2,0.6,0.2,1c0,0.4-0.1,0.7-0.2,1c-0.1,0.3-0.3,0.7-0.5,1c-0.2,0.3-0.6,0.5-0.9,0.7c-0.4,0.2-0.8,0.3-1.3,0.4
			c-0.9,0.1-1.6,0-2-0.4C118.7,15.5,118.4,14.9,118.4,14.2z"/>
		<path fill="#FCFCFC" d="M141.7,27.9c-0.7,0.7-1.5,1.3-2.2,1.8c-0.3,0.2-0.6,0.4-0.9,0.7c-0.3,0.2-0.7,0.4-1,0.6
			c-0.3,0.2-0.6,0.3-0.9,0.5c-0.3,0.1-0.6,0.2-0.8,0.2c-0.1,0-0.4,0-0.7,0c-0.3,0-0.6-0.1-0.9-0.3c-0.3-0.2-0.7-0.4-1-0.8
			c-0.3-0.3-0.6-0.8-0.9-1.4c-0.4,0.4-0.8,0.9-1.2,1.3c-0.4,0.4-0.9,0.8-1.3,1.1c-0.5,0.3-0.9,0.6-1.4,0.8s-0.9,0.3-1.4,0.4
			c-0.7,0.1-1.2,0-1.7-0.2c-0.5-0.2-0.9-0.5-1.2-1c-0.3-0.4-0.6-0.9-0.7-1.5c-0.2-0.6-0.2-1.2-0.2-1.8c0-0.7,0.1-1.4,0.3-2.1
			c0.2-0.7,0.4-1.4,0.7-2.1s0.7-1.4,1.1-2.1c0.4-0.7,0.9-1.4,1.6-2.1c0.7-0.7,1.3-1.2,2-1.5c0.7-0.4,1.4-0.6,2.2-0.8
			c0-1.3,0.2-2.5,0.4-3.6c0.3-1,0.5-2.2,0.8-3.4c0.3-1.2,0.7-2.3,1.1-3.4c0.5-1,1-1.9,1.5-2.7c0.5-0.8,1.1-1.4,1.8-1.9
			c0.6-0.5,1.3-0.7,1.9-0.8c0.5,0,0.9,0,1.2,0.3c0.3,0.2,0.6,0.5,0.8,0.9c0.2,0.4,0.4,0.9,0.5,1.4c0.1,0.5,0.1,1.1,0.1,1.7
			c0,0.4,0,0.7,0,1.1c0,1.5-0.3,2.9-0.7,4.2c-0.4,1.3-0.8,2.6-1.3,3.9c-0.4,1.3-0.9,2.6-1.5,3.8c-0.9,1.9-1.5,3.3-1.7,4
			c-0.1,0.2-0.1,0.3-0.2,0.5c-0.1,0.2-0.1,0.4-0.2,0.7c0,0.2-0.1,0.5-0.1,0.8c0,0.3,0,0.5,0,0.7c0,0.3,0,0.6,0.1,0.9
			c0,0.3,0.1,0.5,0.2,0.7c0.1,0.2,0.2,0.4,0.3,0.5c0.1,0.1,0.3,0.2,0.5,0.1c0.2,0,0.4-0.1,0.6-0.2c0.2-0.1,0.5-0.2,0.7-0.4
			s0.5-0.3,0.8-0.5c0.3-0.2,0.5-0.4,0.8-0.6c0.6-0.5,1.2-1,1.8-1.6C141.5,25.9,141.6,26.6,141.7,27.9z M131,19.8
			c-0.7,0.4-1.3,0.9-1.8,1.5c-0.5,0.6-1,1.4-1.3,2.3c-0.4,0.9-0.6,1.7-0.8,2.4c-0.2,0.7-0.3,1.3-0.3,1.8c0,0.2,0,0.3,0.1,0.5
			c0,0.2,0.1,0.3,0.3,0.4c0.1,0.1,0.3,0.2,0.5,0.3c0.2,0.1,0.5,0.1,0.9,0c0.2,0,0.4-0.1,0.5-0.2c0.2-0.1,0.4-0.2,0.5-0.4
			c0.2-0.2,0.3-0.3,0.5-0.5c0.1-0.2,0.3-0.4,0.4-0.6c0.3-0.5,0.6-1,0.8-1.5c0-0.1-0.1-0.4-0.1-0.7c0-0.3,0-0.8,0-1.4
			c0-0.6,0-1.2,0-1.6c0-0.4,0-0.8,0-1.1c0-0.3,0-0.6,0-0.8C131.1,19.9,131.1,19.8,131,19.8z M138.3,8.5c0.1-0.7,0.1-1.3,0.1-1.7
			c0-0.6,0-0.9-0.1-1.1c-0.1-0.2-0.2-0.3-0.4-0.3c-0.3,0-0.6,0.3-0.9,0.7c-0.3,0.4-0.5,1-0.7,1.7c-0.2,0.7-0.3,1.4-0.5,2.2
			c-0.2,0.8-0.3,1.6-0.4,2.3c-0.1,0.7-0.2,1.4-0.2,2s-0.1,1-0.1,1.3c0,0.5-0.1,1-0.1,1.5c0,0.5-0.1,0.9-0.1,1.3c0,0.4-0.1,0.7-0.1,1
			c0,0.3,0,0.5,0,0.7c0,0.1,0,0.1,0,0.2c1-1.4,1.2-2.8,1.7-4.3c0.2-0.6,0.4-1.2,0.6-1.9c0.2-0.6,0.4-1.3,0.6-1.9
			c0.2-0.6,0.4-1.3,0.5-1.9C138.2,9.7,138.3,9.1,138.3,8.5z"/>
		<path fill="#FCFCFC" d="M157.1,26.2c-0.2,0.3-0.6,0.8-0.9,1.2c-0.4,0.5-0.8,0.9-1.3,1.4c-0.5,0.4-1,0.8-1.6,1.1
			c-0.6,0.3-1.1,0.5-1.7,0.5c-0.7,0-1.3-0.1-1.7-0.5c-0.5-0.4-0.9-1-1.2-1.8c-0.2,0.3-0.6,0.6-0.9,0.9c-0.4,0.3-0.8,0.6-1.2,0.9
			c-0.4,0.3-0.9,0.5-1.3,0.7c-0.5,0.2-0.9,0.3-1.4,0.3c-0.5,0-1,0-1.4-0.2c-0.5-0.2-0.9-0.4-1.2-0.8c-0.4-0.3-0.6-0.8-0.9-1.3
			c-0.2-0.5-0.3-1.1-0.3-1.8c0-0.8,0.1-1.6,0.3-2.4c0.2-0.8,0.6-1.7,1-2.7c0.5-1,0.9-1.8,1.5-2.6c0.5-0.7,1.1-1.4,1.7-1.9
			c0.6-0.6,1.3-1,2-1.4c0.7-0.4,1.4-0.6,2.1-0.6c0.2,0,0.4,0,0.6,0.1c0.1,0.1,0.2,0.2,0.3,0.3c0.1,0.1,0.2,0.2,0.3,0.3
			c0.1,0.1,0.2,0.2,0.3,0.2c0.1,0,0.2,0.1,0.4,0.1c0.1,0,0.3,0,0.4,0c0.1,0,0.2,0,0.3,0s0.2,0,0.3,0c0.2,0,0.3,0,0.4,0
			c0.1,0,0.3,0.1,0.4,0.2c0.1,0.1,0.2,0.2,0.2,0.4c0.1,0.2,0.1,0.4,0.1,0.8c0,0.5-0.1,1-0.2,1.6c-0.1,0.6-0.2,1.2-0.4,1.9
			c-0.1,0.6-0.3,1.4-0.5,2.2s-0.3,1.5-0.3,2.1c0,0.5,0,0.8,0.1,1.1c0.1,0.3,0.3,0.4,0.6,0.4c0.2,0,0.4-0.1,0.7-0.2
			c0.2-0.1,0.5-0.3,0.7-0.5c0.2-0.2,0.5-0.4,0.7-0.6c0.2-0.2,0.5-0.5,0.7-0.7c0.5-0.6,1-1.2,1.5-1.9
			C156.6,24.2,156.8,24.8,157.1,26.2z M143.8,25.8c0,0.3,0,0.5,0.1,0.8c0,0.2,0.1,0.5,0.2,0.7s0.2,0.3,0.4,0.4
			c0.2,0.1,0.4,0.2,0.6,0.1c0.4,0,0.7-0.2,1-0.6c0.3-0.4,0.6-0.8,0.8-1.3c0.2-0.5,0.4-1,0.5-1.5c0.1-0.5,0.2-0.9,0.3-1.3
			c0.5-2,0.7-3.1,1.2-5.1c-0.4,0-0.8,0.2-1.2,0.4c-0.4,0.2-0.8,0.6-1.1,0.9c-0.4,0.4-0.7,0.8-1,1.3c-0.3,0.5-0.6,1.1-0.9,1.8
			c-0.3,0.7-0.5,1.3-0.6,1.8S143.8,25.4,143.8,25.8z"/>
		<path fill="#FCFCFC" d="M161.9,30.1c0.1-0.8,0.2-1.1,0.3-1.9c-0.6,0.5-1.1,0.9-1.7,1.2c-0.6,0.3-1.2,0.5-1.8,0.5
			c-0.5,0-1-0.1-1.4-0.2s-0.9-0.4-1.2-0.8c-0.4-0.4-0.6-0.8-0.9-1.3c-0.2-0.5-0.3-1.1-0.3-1.8c0-0.9,0.1-1.7,0.2-2.5
			c0.1-0.8,0.3-1.7,0.5-2.8c0.2-1.1,0.4-2,0.6-2.6c0.2-0.6,0.5-1.3,0.8-2c0.2-0.5,0.6-0.8,1-1.1c0.4-0.3,0.9-0.4,1.3-0.4
			c0.4,0,0.7,0.1,0.9,0.2s0.4,0.4,0.4,0.8c0,0.1,0,0.2,0,0.4s-0.1,0.3-0.1,0.4c-0.2,0.5-0.3,1-0.5,1.7c-0.1,0.7-0.3,1.5-0.5,2.6
			c-0.2,1.1-0.4,2-0.5,2.6c-0.1,0.6-0.2,1.2-0.2,1.7c0,0.3,0,0.5,0.1,0.8c0,0.2,0.1,0.5,0.2,0.6c0.1,0.2,0.2,0.3,0.4,0.5
			s0.3,0.2,0.6,0.2c0.4,0,0.7-0.2,1-0.5c0.3-0.3,0.6-0.8,0.8-1.2c0.2-0.5,0.4-1,0.5-1.5c0.1-0.5,0.2-0.9,0.3-1.3
			c0.5-2.3,0.7-3.5,1.2-5.8c0.1-0.3,0.2-0.7,0.4-0.9c0.2-0.3,0.4-0.5,0.7-0.7c0.3-0.2,0.6-0.3,0.9-0.4c0.3-0.1,0.6-0.2,0.8-0.2
			c0.3,0,0.6,0.1,0.8,0.2c0.2,0.1,0.3,0.4,0.3,0.7c0,0.1,0,0.2,0,0.3c0,0.3-0.1,0.6-0.2,1.1c-0.1,0.5-0.2,1-0.3,1.6
			c-0.1,0.6-0.2,1.4-0.4,2.5c-0.2,1.1-0.3,1.9-0.4,2.6c-0.3,1.5-0.5,3.2-0.8,4.9c0.3-0.2,0.6-0.4,1-0.7c0.4-0.3,0.8-0.6,1.2-1.1
			c0.4-0.4,0.9-1,1.5-1.6c0.5-0.7,1.2-1.5,1.8-2.5c0.3,1.4,0.4,2.1,0.7,3.4c-0.2,0.3-0.4,0.6-0.7,1c-0.3,0.3-0.6,0.7-1,1
			c-0.5,0.5-0.9,0.8-1.1,1c-0.1,0.1-0.4,0.4-1.1,0.9c-0.2,0.2-0.9,0.7-2,1.5c-0.3,0.2-0.5,0.5-0.6,1c-0.1,0.5-0.2,1.4-0.4,2.7
			c-0.1,0.4-0.1,0.7-0.1,0.9c-0.1,0.5-0.1,1-0.2,1.4c-0.1,0.4-0.2,1-0.3,1.5c-0.1,0.6-0.3,1.1-0.5,1.6c-0.2,0.5-0.5,1-0.8,1.4
			c-0.3,0.5-0.7,0.9-1.1,1.2c-0.4,0.3-0.8,0.6-1.4,0.9c-0.5,0.2-1.1,0.4-1.8,0.4c-0.5,0-1,0-1.5-0.1s-0.9-0.3-1.2-0.5
			c-0.4-0.2-0.7-0.5-0.9-1c-0.2-0.4-0.4-0.9-0.4-1.5c-0.1-1.1,0.2-2.3,0.9-3.5c0.4-0.7,0.6-1.2,0.8-1.5c0.2-0.3,0.4-0.7,0.7-1.2
			c0.3-0.5,0.7-1,1-1.4c0.7-0.8,1.3-1.5,1.8-2C160.7,31.2,161.2,30.6,161.9,30.1z M161.9,33.8c-0.7,0.5-1.4,1.4-2.1,2.5
			c-0.7,1.2-1.3,2.3-1.7,3.5c-0.3,1-0.2,1.5,0.5,1.5c0.2,0,0.5-0.1,0.7-0.1c0.2-0.1,0.4-0.2,0.5-0.4c0.2-0.2,0.3-0.3,0.4-0.5
			c0.1-0.2,0.3-0.5,0.4-0.8s0.3-0.7,0.4-1c0.1-0.3,0.2-0.8,0.4-1.3c0.1-0.3,0.2-0.6,0.2-1c0-0.4,0.1-0.8,0.2-1.3
			C161.9,34.2,161.9,33.9,161.9,33.8z"/>
	</g>
</g>
</svg>
